<!--
    Copyright 2024 Jarsoft. All rights reserved.
    OFFICIAL JARSOFT BRANDING ASSET.
-->
<svg width="512" height="512" viewBox="0 0 512 512" fill="none" xmlns="http://www.w3.org/2000/svg">
  <path d="M364.519 220.347C364.543 214.79 362.503 209.227 359.824 204.366C357.146 199.505 353.271 195.412 348.566 192.475L271.835 144.262C262.003 138.119 252.311 136.901 239.792 142.785L165.832 178.812C159.988 181.777 156.496 183.46 152.15 190.42C147.803 197.38 147.785 201.187 147.461 207.863L147.47 291.271C147.429 302.666 152.623 312.856 162.312 318.911L239.469 367.124C248.981 373.068 261.113 373.666 271.185 368.748C295.914 356.648 320.667 344.568 345.4 332.463C350.921 329.754 355.929 325.662 359.38 320.566C362.831 315.47 364.507 309.371 364.519 303.22C364.509 297.57 364.521 230.283 364.519 220.347ZM270.485 352.905C269.335 353.418 268.174 353.624 267.062 353.418C266.223 353.263 265.434 352.914 264.755 352.398C264.077 351.882 263.529 351.214 263.156 350.447C262.783 349.68 262.748 348.899 262.748 348.221L262.746 271.593C262.738 269.881 262.931 268.226 263.405 266.58C264.105 264.138 265.31 261.869 266.941 259.92C268.572 257.972 270.592 256.387 272.872 255.27L341.43 221.422C342.968 220.712 346.954 220.692 348.459 221.632C349.432 222.24 351.69 224.014 351.671 226.772L351.671 303.22C351.681 310.171 345.316 316.36 339.067 319.399C339.067 319.399 271.634 352.392 270.485 352.905Z" fill="white"/>
</svg>
