<svg width="212" height="229" viewBox="0 0 212 229" fill="none" xmlns="http://www.w3.org/2000/svg">
<path d="M211.976 80.1812C212 74.7543 210.007 69.3212 207.391 64.5742C204.775 59.8272 200.991 55.8303 196.397 52.9623L121.464 5.87948C111.862 -0.12009 102.398 -1.30978 90.1717 4.43641L17.9452 39.6194C12.2381 42.5148 8.82845 44.1589 4.5837 50.9553C0.338951 57.7517 0.320931 61.4704 0.00470491 67.9892L0.0137443 149.443C-0.0266327 160.571 5.04643 170.522 14.5082 176.434L89.8569 223.518C99.1459 229.322 110.993 229.907 120.829 225.103C144.979 213.287 169.152 201.49 193.305 189.669C198.696 187.024 203.587 183.027 206.957 178.051C210.327 173.074 211.964 167.118 211.976 161.112C211.965 155.594 211.978 89.8844 211.976 80.1812ZM120.145 209.632C119.023 210.133 117.889 210.334 116.802 210.133C115.984 209.982 115.212 209.641 114.55 209.137C113.888 208.633 113.353 207.98 112.988 207.231C112.624 206.482 112.59 205.72 112.59 205.058L112.588 130.226C112.58 128.554 112.769 126.938 113.232 125.331C113.915 122.945 115.092 120.729 116.684 118.827C118.277 116.924 120.251 115.376 122.477 114.285L189.428 81.2302C190.93 80.5373 194.822 80.5176 196.292 81.4359C197.242 82.0299 199.448 83.7619 199.429 86.4549L199.429 161.112C199.439 167.899 193.223 173.944 187.12 176.911C187.12 176.911 121.267 209.131 120.145 209.632Z" fill="#0D1117"/>
</svg>
